<svg width="24" height="24" viewBox="0 0 24 24" fill="none" xmlns="http://www.w3.org/2000/svg">
<rect width="24" height="24" rx="2" fill="black"/>
<g clip-path="url(#clip0_42_69)">
<path d="M9.75 12V6.75C9.75 5.50736 10.7574 4.5 12 4.5C13.2426 4.5 14.25 5.50736 14.25 6.75V12M9.75 12C9.75 13.2426 10.7574 14.25 12 14.25M9.75 12C9.75 10.7574 10.7574 9.75 12 9.75M9.75 12V17.25C9.75 18.4926 10.7574 19.5 12 19.5C13.2426 19.5 14.25 18.4926 14.25 17.25V12M12 14.25C13.2426 14.25 14.25 13.2426 14.25 12M12 14.25H17.25C18.4926 14.25 19.5 13.2426 19.5 12C19.5 10.7574 18.4926 9.75 17.25 9.75H12M12 14.25H6.75C5.50736 14.25 4.5 13.2426 4.5 12C4.5 10.7574 5.50736 9.75 6.75 9.75H12M14.25 12C14.25 10.7574 13.2426 9.75 12 9.75M10.409 10.409L14.1213 6.6967C15 5.81802 16.4246 5.81802 17.3033 6.6967C18.182 7.57537 18.182 9 17.3033 9.87866L13.591 13.591M10.409 10.409C9.53029 11.2877 9.53029 12.7123 10.409 13.591M10.409 10.409C11.2877 9.53033 12.7123 9.53033 13.591 10.409M10.409 10.409L6.69673 14.1213C5.81805 15 5.81805 16.4246 6.69673 17.3033C7.57541 18.182 9.00004 18.182 9.8787 17.3033L13.591 13.591M10.409 13.591C11.2876 14.4697 12.7123 14.4697 13.591 13.591M10.409 13.591L14.1213 17.3033C15 18.182 16.4246 18.182 17.3033 17.3033C18.182 16.4246 18.182 15 17.3033 14.1213L13.591 10.409M10.409 13.591L6.6967 9.8787C5.81802 9 5.81802 7.57538 6.6967 6.6967C7.57538 5.81802 9 5.81802 9.8787 6.6967L13.591 10.409M13.591 13.591C14.4697 12.7123 14.4697 11.2877 13.591 10.409" stroke="white" stroke-width="1.2" stroke-linecap="round" stroke-linejoin="round"/>
</g>
<defs>
<clipPath id="clip0_42_69">
<rect width="18" height="18" fill="white" transform="translate(3 3)"/>
</clipPath>
</defs>
</svg>
