<svg width="24" height="24" viewBox="0 0 24 24" fill="none" xmlns="http://www.w3.org/2000/svg">
<g clip-path="url(#clip0_370_84)">
<path d="M22 8.50002C21.9992 7.14651 21.5759 5.827 20.7892 4.72562C20.0025 3.62424 18.8915 2.79592 17.6114 2.35626C16.3313 1.9166 14.9459 1.88752 13.6484 2.27309C12.351 2.65865 11.2063 3.43962 10.374 4.50702C12.884 4.60598 15.2527 5.69501 16.9618 7.53588C18.6709 9.37674 19.5814 11.8196 19.494 14.33L19.827 14.418C20.0473 14.477 20.2792 14.4769 20.4995 14.4179C20.7198 14.3588 20.9206 14.2429 21.0819 14.0817C21.2432 13.9205 21.3593 13.7197 21.4184 13.4995C21.4776 13.2793 21.4778 13.0474 21.419 12.827L21.291 12.351C21.188 11.966 21.251 11.56 21.416 11.198C21.8023 10.3511 22.0015 9.43087 22 8.50002Z" fill="#8B50E6"/>
<path fill-rule="evenodd" clip-rule="evenodd" d="M18 14C18.0004 15.3518 17.6582 16.6816 17.0054 17.8653C16.3526 19.0491 15.4105 20.0481 14.2671 20.7691C13.1236 21.4901 11.8161 21.9097 10.4666 21.9885C9.1171 22.0673 7.76963 21.8029 6.55 21.22C6.19439 21.041 5.78658 20.9949 5.4 21.09L4.173 21.419C3.95267 21.4778 3.72075 21.4776 3.50053 21.4184C3.2803 21.3592 3.07951 21.2432 2.91831 21.0819C2.75712 20.9206 2.64119 20.7197 2.58215 20.4994C2.52312 20.2792 2.52307 20.0473 2.582 19.827L2.91 18.6C3.00512 18.2134 2.95902 17.8056 2.78 17.45C2.26297 16.3666 1.9964 15.1807 2.00004 13.9802C2.00367 12.7798 2.27743 11.5955 2.80101 10.5153C3.32459 9.43499 4.08457 8.48641 5.02462 7.73982C5.96468 6.99323 7.0607 6.46777 8.23146 6.20239C9.40222 5.937 10.6177 5.93851 11.7878 6.20678C12.9579 6.47505 14.0526 7.00321 14.9908 7.75212C15.929 8.50104 16.6867 9.45149 17.2076 10.533C17.7285 11.6146 17.9993 12.7995 18 14ZM6.5 15C6.76521 15 7.01957 14.8946 7.2071 14.7071C7.39464 14.5195 7.5 14.2652 7.5 14C7.5 13.7348 7.39464 13.4804 7.2071 13.2929C7.01957 13.1053 6.76521 13 6.5 13C6.23478 13 5.98043 13.1053 5.79289 13.2929C5.60536 13.4804 5.5 13.7348 5.5 14C5.5 14.2652 5.60536 14.5195 5.79289 14.7071C5.98043 14.8946 6.23478 15 6.5 15ZM10 15C10.2652 15 10.5196 14.8946 10.7071 14.7071C10.8946 14.5195 11 14.2652 11 14C11 13.7348 10.8946 13.4804 10.7071 13.2929C10.5196 13.1053 10.2652 13 10 13C9.73478 13 9.48043 13.1053 9.29289 13.2929C9.10536 13.4804 9 13.7348 9 14C9 14.2652 9.10536 14.5195 9.29289 14.7071C9.48043 14.8946 9.73478 15 10 15ZM13.5 15C13.7652 15 14.0196 14.8946 14.2071 14.7071C14.3946 14.5195 14.5 14.2652 14.5 14C14.5 13.7348 14.3946 13.4804 14.2071 13.2929C14.0196 13.1053 13.7652 13 13.5 13C13.2348 13 12.9804 13.1053 12.7929 13.2929C12.6054 13.4804 12.5 13.7348 12.5 14C12.5 14.2652 12.6054 14.5195 12.7929 14.7071C12.9804 14.8946 13.2348 15 13.5 15Z" fill="#8B50E6"/>
</g>
<defs>
<clipPath id="clip0_370_84">
<rect width="24" height="24" fill="white"/>
</clipPath>
</defs>
</svg>
