<svg width="24" height="24" viewBox="0 0 24 24" fill="none" xmlns="http://www.w3.org/2000/svg">
<g clip-path="url(#clip0_370_85)">
<path d="M20.1818 9H19.3636C18.9116 9 18.5455 9.33562 18.5455 9.75V12C18.5455 15.5063 15.2477 18.3197 11.346 17.9709C7.9454 17.6667 5.45455 14.8645 5.45455 11.7328V9.75C5.45455 9.33562 5.08841 9 4.63636 9H3.81818C3.36614 9 3 9.33562 3 9.75V11.6325C3 15.8344 6.27119 19.5802 10.7727 20.1492V21.75H7.90909C7.45705 21.75 7.09091 22.0856 7.09091 22.5V23.25C7.09091 23.6644 7.45705 24 7.90909 24H16.0909C16.543 24 16.9091 23.6644 16.9091 23.25V22.5C16.9091 22.0856 16.543 21.75 16.0909 21.75H13.2273V20.167C17.6102 19.6158 21 16.1672 21 12V9.75C21 9.33562 20.6339 9 20.1818 9ZM12 16.5C14.7112 16.5 16.9091 14.4853 16.9091 12H12.5456C12.2444 12 12 11.8322 12 11.625V10.875C12 10.6678 12.2444 10.5 12.5456 10.5H16.9091V9H12.5456C12.2444 9 12 8.83219 12 8.625V7.875C12 7.66781 12.2444 7.5 12.5456 7.5H16.9091V6H12.5456C12.2444 6 12 5.83219 12 5.625V4.875C12 4.66781 12.2444 4.5 12.5456 4.5H16.9091C16.9091 2.01469 14.7112 0 12 0C9.28875 0 7.09091 2.01469 7.09091 4.5V12C7.09091 14.4853 9.28875 16.5 12 16.5Z" fill="#ED337B"/>
</g>
<defs>
<clipPath id="clip0_370_85">
<rect width="18" height="24" fill="white" transform="translate(3)"/>
</clipPath>
</defs>
</svg>
