<svg width="48" height="48" viewBox="0 0 48 48" fill="none" xmlns="http://www.w3.org/2000/svg">
<path d="M24.0585 40.9994C19.3363 40.9994 15.3225 39.3466 12.0169 36.0411C8.71138 32.7355 7.05859 28.7217 7.05859 23.9995C7.05859 19.4739 8.59384 15.5925 11.6643 12.3553C14.7348 9.11814 18.4944 7.36494 22.9431 7.0957C23.2303 7.0957 23.5123 7.10595 23.7892 7.12645C24.0661 7.14695 24.3379 7.17772 24.6045 7.21875C23.584 8.17259 22.7712 9.32514 22.1661 10.6764C21.561 12.0277 21.2584 13.4687 21.2584 14.9995C21.2584 18.2773 22.4057 21.0634 24.7001 23.3579C26.9946 25.6523 29.7807 26.7995 33.0585 26.7995C34.6098 26.7995 36.0559 26.497 37.3969 25.8919C38.7379 25.2868 39.879 24.474 40.82 23.4535C40.861 23.7201 40.8918 23.9919 40.9123 24.2688C40.9328 24.5457 40.9431 24.8277 40.9431 25.1149C40.6867 29.5636 38.9399 33.3232 35.7027 36.3937C32.4655 39.4642 28.5841 40.9994 24.0585 40.9994ZM24.0585 37.9995C26.9919 37.9995 29.6252 37.1911 31.9585 35.5745C34.2919 33.9578 35.9919 31.8495 37.0585 29.2495C36.3919 29.4161 35.7252 29.5495 35.0585 29.6495C34.3919 29.7495 33.7252 29.7995 33.0585 29.7995C28.9585 29.7995 25.4669 28.3578 22.5835 25.4745C19.7002 22.5911 18.2585 19.0995 18.2585 14.9995C18.2585 14.3328 18.3085 13.6661 18.4085 12.9995C18.5085 12.3328 18.6419 11.6661 18.8085 10.9995C16.2085 12.0661 14.1002 13.7661 12.4835 16.0995C10.8669 18.4328 10.0585 21.0661 10.0585 23.9995C10.0585 27.8661 11.4252 31.1661 14.1585 33.8995C16.8919 36.6328 20.1919 37.9995 24.0585 37.9995Z" fill="white"/>
</svg>
