<svg width="12" height="12" viewBox="0 0 12 12" fill="none" xmlns="http://www.w3.org/2000/svg">
<path fill-rule="evenodd" clip-rule="evenodd" d="M6 1C3.2375 1 1 3.2375 1 6C0.999434 7.04964 1.32941 8.0728 1.94311 8.92434C2.55681 9.77587 3.42307 10.4125 4.419 10.744C4.669 10.7875 4.7625 10.6375 4.7625 10.506C4.7625 10.3875 4.756 9.994 4.756 9.575C3.5 9.8065 3.175 9.269 3.075 8.9875C3.0185 8.8435 2.775 8.4 2.5625 8.281C2.3875 8.1875 2.1375 7.956 2.556 7.95C2.95 7.9435 3.231 8.3125 3.325 8.4625C3.775 9.2185 4.494 9.006 4.781 8.875C4.825 8.55 4.956 8.3315 5.1 8.2065C3.9875 8.0815 2.825 7.65 2.825 5.7375C2.825 5.1935 3.0185 4.744 3.3375 4.394C3.2875 4.269 3.1125 3.7565 3.3875 3.069C3.3875 3.069 3.806 2.9375 4.7625 3.581C5.16956 3.4682 5.59011 3.41151 6.0125 3.4125C6.4375 3.4125 6.8625 3.4685 7.2625 3.581C8.2185 2.931 8.6375 3.069 8.6375 3.069C8.9125 3.7565 8.7375 4.269 8.6875 4.394C9.006 4.744 9.2 5.1875 9.2 5.7375C9.2 7.6565 8.0315 8.0815 6.919 8.2065C7.1 8.3625 7.2565 8.6625 7.2565 9.1315C7.2565 9.8 7.25 10.3375 7.25 10.5065C7.25 10.6375 7.344 10.7935 7.594 10.7435C8.58652 10.4084 9.44896 9.7705 10.06 8.91958C10.6709 8.06865 10.9997 7.04756 11 6C11 3.2375 8.7625 1 6 1Z" fill="white"/>
</svg>
