<svg width="12" height="12" viewBox="0 0 12 12" fill="none" xmlns="http://www.w3.org/2000/svg">
<path d="M8.12 11C7.98739 11 7.86022 10.9473 7.76645 10.8535C7.67268 10.7597 7.62 10.6326 7.62 10.5V9.19995C7.63554 9.05042 7.61954 8.89928 7.57303 8.75632C7.52652 8.61335 7.45054 8.48173 7.35 8.36995C7.28775 8.30244 7.2453 8.21909 7.2273 8.12904C7.20929 8.03899 7.21644 7.94573 7.24794 7.85947C7.27945 7.77321 7.3341 7.6973 7.40591 7.64006C7.47771 7.58281 7.56389 7.54645 7.655 7.53495C8.875 7.38995 10 6.99995 10 4.88495C10.0004 4.48999 9.88382 4.10376 9.665 3.77495C9.46308 3.47227 9.38936 3.10188 9.46 2.74495C9.50507 2.51211 9.50507 2.27279 9.46 2.03995C9.08561 2.16654 8.73309 2.35039 8.415 2.58495C8.35486 2.62766 8.28602 2.65653 8.2134 2.6695C8.14079 2.68246 8.06621 2.6792 7.995 2.65995C7.09267 2.40498 6.13734 2.40498 5.235 2.65995C5.1638 2.6792 5.08921 2.68246 5.0166 2.6695C4.94399 2.65653 4.87514 2.62766 4.815 2.58495C4.49497 2.34767 4.13872 2.16363 3.76 2.03995C3.71245 2.27255 3.71245 2.51236 3.76 2.74495C3.82555 3.10638 3.74848 3.47914 3.545 3.78495C3.32713 4.11606 3.2107 4.50359 3.21 4.89995C3.21 6.84495 4.15 7.36495 5.56 7.54495C5.65227 7.5564 5.73951 7.59335 5.81194 7.65164C5.88436 7.70993 5.9391 7.78727 5.97 7.87495C5.99907 7.96003 6.00466 8.05138 5.98619 8.13937C5.96771 8.22737 5.92584 8.30875 5.865 8.37495C5.76775 8.4789 5.69311 8.60189 5.64577 8.73614C5.59844 8.87039 5.57945 9.01299 5.59 9.15495V10.5C5.59 10.6326 5.53732 10.7597 5.44356 10.8535C5.34979 10.9473 5.22261 11 5.09 11C4.95739 11 4.83022 10.9473 4.73645 10.8535C4.64268 10.7597 4.59 10.6326 4.59 10.5V10.215C4.09868 10.2715 3.60102 10.2056 3.14129 10.0233C2.68157 9.84098 2.27405 9.54783 1.955 9.16995C1.791 8.98818 1.59424 8.83891 1.375 8.72995C1.31131 8.71354 1.25148 8.68474 1.19892 8.6452C1.14635 8.60566 1.1021 8.55615 1.06867 8.49951C1.03524 8.44287 1.01329 8.38019 1.00409 8.31507C0.994878 8.24994 0.998587 8.18364 1.015 8.11995C1.03142 8.05626 1.06022 7.99643 1.09976 7.94386C1.1393 7.8913 1.1888 7.84705 1.24544 7.81362C1.30209 7.78019 1.36476 7.75824 1.42989 7.74903C1.49501 7.73983 1.56131 7.74354 1.625 7.75995C2.00963 7.90007 2.3533 8.13377 2.625 8.43995C3.125 8.93995 3.625 9.37995 4.575 9.19995C4.5583 8.9315 4.59746 8.6625 4.69 8.40995C3.66 8.14995 2.19 7.40995 2.19 4.90995C2.18868 4.31777 2.36266 3.73844 2.69 3.24495C2.7508 3.15385 2.77409 3.0428 2.755 2.93495C2.65397 2.39524 2.71127 1.83782 2.92 1.32995C2.94836 1.26223 2.99129 1.20159 3.04573 1.15234C3.10017 1.10308 3.16479 1.06642 3.235 1.04495C3.405 0.994951 4.015 0.894951 5.17 1.64495C6.10499 1.41995 7.08001 1.41995 8.015 1.64495C9.17 0.894951 9.78 0.989951 9.945 1.04495C10.0152 1.06642 10.0798 1.10308 10.1343 1.15234C10.1887 1.20159 10.2316 1.26223 10.26 1.32995C10.4691 1.83947 10.5265 2.3986 10.425 2.93995C10.4148 2.98873 10.4144 3.03905 10.4238 3.08799C10.4333 3.13692 10.4524 3.18348 10.48 3.22495C10.8083 3.71986 10.9823 4.30107 10.98 4.89495C10.98 7.42995 9.52 8.16495 8.48 8.39495C8.57162 8.66325 8.60901 8.94708 8.59 9.22995V10.5C8.59023 10.6275 8.54169 10.7504 8.45432 10.8433C8.36694 10.9363 8.24734 10.9923 8.12 11Z" fill="white"/>
</svg>
