<svg width="48" height="48" viewBox="0 0 48 48" fill="none" xmlns="http://www.w3.org/2000/svg">
<path d="M24 29.3023C25.4729 29.3023 26.7248 28.7868 27.7558 27.7558C28.7868 26.7248 29.3024 25.4728 29.3024 24C29.3024 22.5271 28.7868 21.2752 27.7558 20.2442C26.7248 19.2132 25.4729 18.6976 24 18.6976C22.5272 18.6976 21.2752 19.2132 20.2442 20.2442C19.2132 21.2752 18.6977 22.5271 18.6977 24C18.6977 25.4728 19.2132 26.7248 20.2442 27.7558C21.2752 28.7868 22.5272 29.3023 24 29.3023ZM24 31.9534C21.793 31.9534 19.9157 31.1796 18.368 29.632C16.8204 28.0843 16.0466 26.207 16.0466 24C16.0466 21.793 16.8204 19.9156 18.368 18.368C19.9157 16.8203 21.793 16.0465 24 16.0465C26.207 16.0465 28.0844 16.8203 29.632 18.368C31.1797 19.9156 31.9535 21.793 31.9535 24C31.9535 26.207 31.1797 28.0843 29.632 29.632C28.0844 31.1796 26.207 31.9534 24 31.9534ZM6.32558 25.3255C5.95 25.3255 5.63519 25.1984 5.38115 24.9443C5.12705 24.6901 5 24.3751 5 23.9994C5 23.6236 5.12704 23.3089 5.38111 23.0551C5.63515 22.8013 5.94996 22.6744 6.32554 22.6744H10.3023C10.6779 22.6744 10.9927 22.8015 11.2468 23.0557C11.5009 23.3099 11.6279 23.6248 11.6279 24.0006C11.6279 24.3763 11.5009 24.6911 11.2468 24.9449C10.9927 25.1986 10.6779 25.3255 10.3024 25.3255H6.32558ZM37.6977 25.3255C37.3221 25.3255 37.0073 25.1984 36.7532 24.9443C36.4992 24.6901 36.3721 24.3751 36.3721 23.9994C36.3721 23.6236 36.4992 23.3089 36.7532 23.0551C37.0073 22.8013 37.3221 22.6744 37.6977 22.6744H41.6745C42.05 22.6744 42.3649 22.8015 42.6189 23.0557C42.873 23.3099 43 23.6248 43 24.0006C43 24.3763 42.873 24.6911 42.6189 24.9449C42.3649 25.1986 42.05 25.3255 41.6745 25.3255H37.6977ZM23.9994 11.6279C23.6237 11.6279 23.3089 11.5008 23.0551 11.2468C22.8014 10.9927 22.6745 10.6779 22.6745 10.3023V6.32554C22.6745 5.94996 22.8016 5.63513 23.0557 5.38106C23.3099 5.12702 23.6249 5 24.0006 5C24.3764 5 24.6911 5.12702 24.9449 5.38106C25.1987 5.63513 25.3256 5.94996 25.3256 6.32554V10.3023C25.3256 10.6779 25.1985 10.9927 24.9443 11.2468C24.6901 11.5008 24.3752 11.6279 23.9994 11.6279ZM23.9994 43C23.6237 43 23.3089 42.873 23.0551 42.6189C22.8014 42.3648 22.6745 42.05 22.6745 41.6744V37.6976C22.6745 37.3221 22.8016 37.0073 23.0557 36.7532C23.3099 36.4991 23.6249 36.3721 24.0006 36.3721C24.3764 36.3721 24.6911 36.4991 24.9449 36.7532C25.1987 37.0073 25.3256 37.3221 25.3256 37.6976V41.6744C25.3256 42.05 25.1985 42.3648 24.9443 42.6189C24.6901 42.873 24.3752 43 23.9994 43ZM13.4056 15.2341L11.1827 13.0724C10.9198 12.8276 10.7929 12.52 10.802 12.1496C10.8111 11.7791 10.9397 11.4568 11.1879 11.1826C11.4586 10.9084 11.7763 10.7713 12.1411 10.7713C12.506 10.7713 12.8164 10.9084 13.0724 11.1826L15.2512 13.3886C15.5072 13.6627 15.6352 13.9732 15.6352 14.3199C15.6352 14.6665 15.51 14.977 15.2597 15.2511C15.0093 15.5253 14.7062 15.655 14.3505 15.6403C13.9947 15.6255 13.6798 15.4901 13.4056 15.2341ZM34.9276 36.8173L32.7489 34.6114C32.4928 34.3372 32.3648 34.0223 32.3648 33.6665C32.3648 33.3108 32.4928 33.0049 32.7489 32.7488C32.9879 32.4747 33.2867 32.3449 33.6453 32.3597C34.0039 32.3744 34.3203 32.5098 34.5944 32.7658L36.8173 34.9276C37.0802 35.1723 37.2071 35.4799 37.1981 35.8503C37.189 36.2208 37.0604 36.5431 36.8122 36.8173C36.5415 37.0915 36.2237 37.2286 35.8589 37.2286C35.4941 37.2286 35.1836 37.0915 34.9276 36.8173ZM32.7489 15.2596C32.4747 15.0093 32.345 14.7062 32.3597 14.3504C32.3745 13.9947 32.5098 13.6797 32.7659 13.4056L34.9276 11.1827C35.1723 10.9198 35.4799 10.7929 35.8504 10.8019C36.2209 10.811 36.5432 10.9396 36.8173 11.1878C37.0915 11.4585 37.2286 11.7763 37.2286 12.1411C37.2286 12.5059 37.0915 12.8164 36.8173 13.0724L34.6114 15.2511C34.3373 15.5072 34.0268 15.6352 33.6801 15.6352C33.3335 15.6352 33.023 15.51 32.7489 15.2596ZM11.1827 36.821C10.9085 36.5444 10.7714 36.2237 10.7714 35.8589C10.7714 35.494 10.9085 35.1836 11.1827 34.9276L13.3886 32.7488C13.6628 32.4928 13.9777 32.3648 14.3335 32.3648C14.6892 32.3648 14.9951 32.4928 15.2512 32.7488C15.514 32.9879 15.6381 33.2867 15.6234 33.6453C15.6086 34.0039 15.4789 34.3202 15.2342 34.5944L13.0724 36.8173C12.8164 37.0915 12.506 37.2241 12.1411 37.215C11.7763 37.2059 11.4569 37.0746 11.1827 36.821Z" fill="black"/>
</svg>
