<svg width="95" height="26" viewBox="0 0 95 26" fill="none" xmlns="http://www.w3.org/2000/svg">
<g clip-path="url(#clip0_62_5)">
<path d="M17.448 20.7143H13.176V13.0823C13.176 12.3943 13.048 11.8903 12.792 11.5703C12.472 11.1543 11.888 10.9463 11.04 10.9463H8.976C7.856 10.9463 7.296 11.5063 7.296 12.6263V14.8103C7.296 15.4343 7.424 15.8663 7.68 16.1063C7.936 16.3303 8.352 16.4423 8.928 16.4423H11.184V20.7143H6.696C5.48 20.7143 4.544 20.3223 3.888 19.5383C3.312 18.8503 3.024 18.0183 3.024 17.0423V10.5623C3.024 9.36228 3.24 8.49028 3.672 7.94628C4.232 7.24228 5.24 6.89028 6.696 6.89028H13.848C14.872 6.89028 15.728 7.24228 16.416 7.94628C17.104 8.63428 17.448 9.48228 17.448 10.4903V20.7143ZM28.0371 6.89028H32.0451V14.6423C32.0451 15.1863 32.1411 15.5703 32.3331 15.7943C32.5411 16.0023 32.9331 16.1063 33.5091 16.1063C34.5171 16.1063 35.0211 15.6023 35.0211 14.5943V6.89028H39.2931V17.0423C39.2931 18.2423 39.0771 19.1143 38.6451 19.6583C38.0851 20.3623 37.0771 20.7143 35.6211 20.7143H24.3891C23.2211 20.7143 22.3171 20.3623 21.6771 19.6583C21.0851 19.0183 20.7891 18.1703 20.7891 17.1143V6.89028H25.0851V14.5943C25.0851 15.1543 25.1891 15.5463 25.3971 15.7703C25.6051 15.9943 26.0051 16.1063 26.5971 16.1063C27.1731 16.1063 27.5571 15.9863 27.7491 15.7463C27.9411 15.5063 28.0371 15.1063 28.0371 14.5463V6.89028ZM47.1375 4.51428V6.86628H53.7375C55.1935 6.86628 56.1935 7.22628 56.7375 7.94628C57.1535 8.47428 57.3615 9.34628 57.3615 10.5623L57.3375 20.7143H53.0895V12.8423C53.0895 11.5783 52.5295 10.9463 51.4095 10.9463H49.3455C48.4975 10.9463 47.9135 11.1143 47.5935 11.4503C47.3535 11.7223 47.2335 12.1943 47.2335 12.8663V20.7143H42.9375V4.51428H47.1375ZM75.1974 6.89028V17.0423C75.1974 18.2423 74.9814 19.1143 74.5494 19.6583C73.9894 20.3623 72.9814 20.7143 71.5254 20.7143H64.3734C63.3494 20.7143 62.4934 20.3703 61.8054 19.6823C61.1174 18.9783 60.7734 18.1223 60.7734 17.1143V6.89028H65.0454V14.5223C65.0454 15.2103 65.1734 15.7143 65.4294 16.0343C65.7494 16.4503 66.3334 16.6583 67.1814 16.6583H69.2454C69.7414 16.6583 70.1414 16.5063 70.4454 16.2023C70.7654 15.8823 70.9254 15.4743 70.9254 14.9783V6.89028H75.1974ZM78.8438 4.51428H83.1158V14.4983C83.1158 15.1863 83.2438 15.6903 83.4998 16.0103C83.8198 16.4263 84.4038 16.6343 85.2518 16.6343H87.3158C88.4358 16.6343 88.9958 16.0743 88.9958 14.9543V12.7703C88.9958 12.1463 88.8598 11.7063 88.5878 11.4503C88.3478 11.2423 87.9398 11.1383 87.3638 11.1383H85.1078V6.86628H89.5958C90.8118 6.86628 91.7478 7.25828 92.4037 8.04228C92.9798 8.73028 93.2678 9.56228 93.2678 10.5383V17.0183C93.2678 18.2183 93.0518 19.0903 92.6198 19.6343C92.0598 20.3383 91.0518 20.6903 89.5958 20.6903H82.4438C81.4198 20.6903 80.5638 20.3463 79.8758 19.6583C79.1878 18.9543 78.8438 18.0983 78.8438 17.0903V4.51428Z" fill="white"/>
</g>
<defs>
<clipPath id="clip0_62_5">
<rect width="95" height="26" fill="white"/>
</clipPath>
</defs>
</svg>
