<svg width="124" height="26" viewBox="0 0 124 26" fill="none" xmlns="http://www.w3.org/2000/svg">
<g clip-path="url(#clip0_76_264)">
<path d="M40.0671 20H35.7951V12.368C35.7951 11.68 35.6671 11.176 35.4111 10.856C35.0911 10.44 34.5071 10.232 33.6591 10.232H31.5951C30.4751 10.232 29.9151 10.792 29.9151 11.912V14.096C29.9151 14.72 30.0431 15.152 30.2991 15.392C30.5551 15.616 30.9711 15.728 31.5471 15.728H33.8031V20H29.3151C28.0991 20 27.1631 19.608 26.5071 18.824C25.9311 18.136 25.6431 17.304 25.6431 16.328V9.848C25.6431 8.648 25.8591 7.776 26.2911 7.232C26.8511 6.528 27.8591 6.176 29.3151 6.176H36.4671C37.4911 6.176 38.3471 6.528 39.0351 7.232C39.7231 7.92 40.0671 8.768 40.0671 9.776V20ZM50.6562 6.176H54.6642V13.928C54.6642 14.472 54.7602 14.856 54.9522 15.08C55.1602 15.288 55.5522 15.392 56.1282 15.392C57.1362 15.392 57.6402 14.888 57.6402 13.88V6.176H61.9122V16.328C61.9122 17.528 61.6962 18.4 61.2642 18.944C60.7042 19.648 59.6962 20 58.2402 20H47.0082C45.8402 20 44.9362 19.648 44.2962 18.944C43.7042 18.304 43.4082 17.456 43.4082 16.4V6.176H47.7042V13.88C47.7042 14.44 47.8082 14.832 48.0162 15.056C48.2242 15.28 48.6242 15.392 49.2162 15.392C49.7922 15.392 50.1762 15.272 50.3682 15.032C50.5602 14.792 50.6562 14.392 50.6562 13.832V6.176ZM72.8046 20V12.344C72.8046 11.784 72.7086 11.384 72.5166 11.144C72.3246 10.904 71.9406 10.784 71.3646 10.784C70.7406 10.784 70.3246 10.92 70.1166 11.192C69.9406 11.4 69.8526 11.768 69.8526 12.296L69.8286 20H65.5566V9.776C65.5566 8.72 65.8526 7.872 66.4446 7.232C67.0846 6.528 67.9886 6.176 69.1566 6.176H80.3886C81.8446 6.176 82.8526 6.528 83.4126 7.232C83.8446 7.776 84.0606 8.648 84.0606 9.848L84.0846 20H79.7886V12.296C79.7886 11.288 79.2846 10.784 78.2766 10.784C77.7006 10.784 77.3086 10.896 77.1006 11.12C76.9086 11.328 76.8126 11.704 76.8126 12.248V20H72.8046ZM101.919 20H97.6467V12.368C97.6467 11.68 97.5187 11.176 97.2627 10.856C96.9427 10.44 96.3587 10.232 95.5107 10.232H93.4467C92.3267 10.232 91.7667 10.792 91.7667 11.912V14.096C91.7667 14.72 91.8947 15.152 92.1507 15.392C92.4067 15.616 92.8227 15.728 93.3987 15.728H95.6547V20H91.1667C89.9507 20 89.0147 19.608 88.3587 18.824C87.7827 18.136 87.4947 17.304 87.4947 16.328V9.848C87.4947 8.648 87.7107 7.776 88.1427 7.232C88.7027 6.528 89.7107 6.176 91.1667 6.176H98.3187C99.3427 6.176 100.199 6.528 100.887 7.232C101.575 7.92 101.919 8.768 101.919 9.776V20ZM105.26 22.352V9.776C105.26 8.768 105.604 7.92 106.292 7.232C106.98 6.528 107.836 6.176 108.86 6.176H116.012C117.468 6.176 118.476 6.528 119.036 7.232C119.468 7.776 119.684 8.648 119.684 9.848V16.328C119.684 17.304 119.396 18.136 118.82 18.824C118.164 19.608 117.228 20 116.012 20H111.524V15.728H113.78C114.356 15.728 114.772 15.616 115.028 15.392C115.284 15.152 115.412 14.72 115.412 14.096V11.912C115.412 10.792 114.852 10.232 113.732 10.232H111.668C110.82 10.232 110.236 10.44 109.916 10.856C109.66 11.176 109.532 11.68 109.532 12.368V22.352H105.26Z" fill="white"/>
<path d="M10.125 7.16663L5.375 10.3333V19.8333L10.125 16.6666L14.875 19.8333L19.625 16.6666V7.16663L14.875 10.3333L10.125 7.16663Z" fill="white"/>
<path fill-rule="evenodd" clip-rule="evenodd" d="M19.9986 6.4684C20.1249 6.53605 20.2306 6.63673 20.3042 6.7597C20.3778 6.88268 20.4166 7.02333 20.4166 7.16665V16.6667C20.4166 16.797 20.3845 16.9252 20.323 17.0401C20.2615 17.155 20.1727 17.253 20.0643 17.3253L15.3143 20.492C15.1842 20.5788 15.0313 20.6251 14.8749 20.6251C14.7185 20.6251 14.5656 20.5788 14.4355 20.492L10.1249 17.6182L5.81429 20.492C5.69507 20.5715 5.55648 20.6172 5.41333 20.6242C5.27017 20.6311 5.12781 20.5991 5.00144 20.5315C4.87506 20.4639 4.76942 20.3632 4.69577 20.2402C4.62212 20.1173 4.58323 19.9766 4.58325 19.8333V10.3333C4.58323 10.203 4.61538 10.0747 4.67683 9.95982C4.73829 9.84492 4.82715 9.74697 4.93554 9.67465L9.68554 6.50799C9.81564 6.42119 9.96853 6.37487 10.1249 6.37487C10.2813 6.37487 10.4342 6.42119 10.5643 6.50799L14.8749 9.38174L19.1855 6.50799C19.3048 6.42839 19.4434 6.38266 19.5866 6.37569C19.7298 6.36872 19.8722 6.40076 19.9986 6.4684ZM6.16659 10.7569V18.3537L9.68554 16.008C9.81564 15.9212 9.96853 15.8749 10.1249 15.8749C10.2813 15.8749 10.4342 15.9212 10.5643 16.008L14.8749 18.8817L18.8333 16.2431V8.64628L15.3143 10.992C15.1842 11.0788 15.0313 11.1251 14.8749 11.1251C14.7185 11.1251 14.5656 11.0788 14.4355 10.992L10.1249 8.11824L6.16659 10.7569Z" fill="white"/>
</g>
<defs>
<clipPath id="clip0_76_264">
<rect width="124" height="26" fill="white"/>
</clipPath>
</defs>
</svg>
