<svg width="99" height="24" viewBox="0 0 99 24" fill="none" xmlns="http://www.w3.org/2000/svg">
<g clip-path="url(#clip0_63_8)">
<path d="M1.49038 20L9.09838 4.088H13.4664L21.2664 20H10.3944L8.45038 16.328L6.57838 20H1.49038ZM8.83438 15.512H13.7544L11.2344 10.616L8.83438 15.512ZM34.6211 4.112L37.7411 10.664V4.112H42.2291V20.024H36.9491L32.5331 10.448L27.7331 20.024H22.4291V4.112H26.8931V10.904L30.2531 4.112H34.6211ZM56.2612 4.088H60.7252V20H56.2612V14.264H48.2212V20H43.7572V4.088H48.2212V9.776H56.2612V4.088ZM73.5768 15.008V4.088H78.3048V14.912C78.3048 15.488 78.2248 16.08 78.0648 16.688C77.9048 17.28 77.6728 17.824 77.3688 18.32C77.0648 18.8 76.7048 19.2 76.2888 19.52C75.8728 19.84 75.4008 20 74.8728 20H65.7288C65.2168 20 64.7448 19.84 64.3128 19.52C63.8968 19.2 63.5368 18.8 63.2328 18.32C62.9288 17.824 62.6888 17.28 62.5128 16.688C62.3528 16.08 62.2728 15.488 62.2728 14.912V4.088H67.0248V15.104C67.0248 15.232 67.0328 15.352 67.0488 15.464C67.0808 15.56 67.1848 15.608 67.3608 15.608H73.2408C73.4168 15.608 73.5128 15.56 73.5288 15.464C73.5608 15.352 73.5768 15.232 73.5768 15.104V15.008ZM93.5549 4.088C94.0509 4.088 94.4989 4.256 94.8989 4.592C95.3149 4.928 95.6669 5.352 95.9549 5.864C96.2429 6.36 96.4589 6.912 96.6029 7.52C96.7629 8.112 96.8429 8.672 96.8429 9.2C96.8429 9.76 96.7709 10.272 96.6269 10.736C96.4829 11.184 96.2589 11.624 95.9549 12.056C96.3229 12.44 96.5629 12.872 96.6749 13.352C96.7869 13.832 96.8429 14.352 96.8429 14.912C96.8429 15.44 96.7629 16.008 96.6029 16.616C96.4589 17.208 96.2429 17.76 95.9549 18.272C95.6669 18.768 95.3149 19.184 94.8989 19.52C94.4989 19.84 94.0509 20 93.5549 20H79.8509V4.088H93.5549ZM91.8029 14.264H85.4189V14.192H85.3949V9.872H91.8029C91.9629 9.744 92.0829 9.616 92.1629 9.488C92.2429 9.36 92.2829 9.264 92.2829 9.2C92.2829 9.04 92.2269 8.896 92.1149 8.768C92.0189 8.64 91.9069 8.576 91.7789 8.576H84.3389V15.512H91.7789C91.9069 15.512 92.0029 15.456 92.0669 15.344C92.1469 15.216 92.1869 15.072 92.1869 14.912C92.1869 14.832 92.1389 14.728 92.0429 14.6C91.9629 14.456 91.8829 14.344 91.8029 14.264Z" fill="black"/>
</g>
<defs>
<clipPath id="clip0_63_8">
<rect width="99" height="24" fill="white"/>
</clipPath>
</defs>
</svg>
