<svg width="80" height="80" viewBox="0 0 80 80" fill="none" xmlns="http://www.w3.org/2000/svg">
<rect width="80" height="80" rx="6" fill="white"/>
<path d="M10.0386 35.252C8.32258 35.252 7.13458 34.88 6.47458 34.136C6.01858 33.608 5.79058 32.87 5.79058 31.922C5.79058 31.514 5.83258 31.076 5.91658 30.608L6.65458 26.468C7.19458 23.432 9.14458 21.914 12.5046 21.914C13.8966 21.914 14.9526 22.214 15.6726 22.814C16.3926 23.402 16.7526 24.212 16.7526 25.244C16.7526 25.724 16.6806 26.204 16.5366 26.684C16.4046 27.152 16.2726 27.5 16.1406 27.728L15.9426 28.088H12.7566C13.1526 27.632 13.3506 26.984 13.3506 26.144C13.3506 25.7 13.2366 25.352 13.0086 25.1C12.7806 24.836 12.4446 24.704 12.0006 24.704C10.7886 24.704 10.0686 25.376 9.84058 26.72L9.21058 30.356C9.15058 30.668 9.12058 30.974 9.12058 31.274C9.12058 32.066 9.59458 32.462 10.5426 32.462C11.6826 32.462 12.3666 31.82 12.5946 30.536H15.8346L15.7446 31.058C15.2646 33.854 13.3626 35.252 10.0386 35.252ZM22.9283 26.594L25.9703 22.04H29.2103L23.6663 30.014L22.7843 35H19.5263L20.4083 30.014L17.6723 22.04H21.1103L22.5143 26.594H22.9283ZM34.3323 31.058H32.1903L31.4883 35H28.2483L30.5343 22.04H36.0243C37.3803 22.04 38.3463 22.352 38.9223 22.976C39.3423 23.456 39.5523 24.068 39.5523 24.812C39.5523 25.064 39.5283 25.328 39.4803 25.604L39.1203 27.638C38.9403 28.634 38.4123 29.456 37.5363 30.104C36.6603 30.74 35.5923 31.058 34.3323 31.058ZM34.8903 24.848H33.2703L32.6763 28.25H34.2783C35.2623 28.25 35.8323 27.812 35.9883 26.936L36.1143 26.198C36.1383 26.09 36.1503 25.946 36.1503 25.766C36.1503 25.586 36.0603 25.388 35.8803 25.172C35.7003 24.956 35.3703 24.848 34.8903 24.848ZM52.0028 22.04L49.7348 35H46.4768L47.3048 30.32H43.7948L42.9848 35H39.7268L42.0128 22.04H45.2528L44.2808 27.512H47.7908L48.7628 22.04H52.0028ZM61.3135 35H52.2775L54.5635 22.04H63.5995L63.0955 24.848H57.2995L56.8855 27.278H61.6735L61.1695 30.086H56.3815L56.0215 32.192H61.8175L61.3135 35ZM70.8929 22.04C72.2609 22.04 73.2329 22.34 73.8089 22.94C74.2409 23.396 74.4569 23.972 74.4569 24.668C74.4569 24.908 74.4329 25.16 74.3849 25.424L74.1329 26.828C73.9889 27.608 73.7369 28.238 73.3769 28.718C73.0289 29.198 72.6389 29.54 72.2069 29.744L73.8449 35H70.2089L68.6969 30.158H67.5809L66.8429 35H63.3869L65.6729 22.04H70.8929ZM69.7589 24.848H68.4089L67.9409 27.98H69.2009C69.8369 27.98 70.2929 27.83 70.5689 27.53C70.8449 27.218 70.9829 26.81 70.9829 26.306C70.9829 25.334 70.5749 24.848 69.7589 24.848ZM25.9959 48.04L23.7279 61H20.4699L18.2019 53.908L16.9779 61H13.7199L16.0059 48.04H19.3539L21.5859 54.664L22.7559 48.04H25.9959ZM35.3067 61H26.2707L28.5567 48.04H37.5927L37.0887 50.848H31.2927L30.8787 53.278H35.6667L35.1627 56.086H30.3747L30.0147 58.192H35.8107L35.3067 61ZM49.1341 48.04L48.8281 57.85H49.2421L52.3741 48.04H55.9021L51.4561 61H46.0561L46.5421 52.702L44.1301 61H38.7301L38.8561 48.04H42.3841L42.0601 57.85H42.4741L45.6241 48.04H49.1341ZM58.7302 57.31C58.7302 58.138 59.3242 58.552 60.5122 58.552C61.7122 58.552 62.3122 58.18 62.3122 57.436C62.3122 57.04 62.1082 56.716 61.7002 56.464C61.2922 56.212 60.7942 56.002 60.2062 55.834C59.6302 55.666 59.0482 55.474 58.4602 55.258C57.8842 55.03 57.3922 54.682 56.9842 54.214C56.5762 53.734 56.3722 53.14 56.3722 52.432C56.3722 49.42 58.3102 47.914 62.1862 47.914C63.6022 47.914 64.6702 48.184 65.3902 48.724C66.1222 49.252 66.4882 49.99 66.4882 50.938C66.4882 51.286 66.4402 51.622 66.3442 51.946C66.2602 52.258 66.1702 52.48 66.0742 52.612L65.9302 52.828H62.7442C63.0082 52.552 63.1402 52.204 63.1402 51.784C63.1402 51.004 62.6302 50.614 61.6102 50.614C60.3262 50.614 59.6842 51.022 59.6842 51.838C59.6842 52.246 59.8882 52.57 60.2962 52.81C60.7042 53.05 61.1962 53.242 61.7722 53.386C62.3602 53.518 62.9482 53.686 63.5362 53.89C64.1242 54.094 64.6222 54.436 65.0302 54.916C65.4382 55.384 65.6422 55.996 65.6422 56.752C65.6422 58.276 65.1862 59.41 64.2742 60.154C63.3622 60.886 61.9582 61.252 60.0622 61.252C58.1662 61.252 56.8702 60.916 56.1742 60.244C55.6582 59.74 55.4002 59.044 55.4002 58.156C55.4002 57.82 55.4362 57.454 55.5082 57.058L55.5622 56.77H58.8022L58.7662 56.986C58.7422 57.106 58.7302 57.214 58.7302 57.31Z" fill="#0F1116"/>
</svg>
