<svg width="72" height="18" viewBox="0 0 72 18" fill="none" xmlns="http://www.w3.org/2000/svg">
<g clip-path="url(#clip0_59_8)">
<path d="M10 9.25V7H5.5V9.25H10ZM1 16V2.5H14.5V16H10V13.75H5.5V16H1ZM15.25 16V2.5H19.75V9.25L22 7L24.25 9.25V2.5H28.75V16H24.25L22 13.75L19.75 16H15.25ZM29.5 16V2.5H34V7H38.5V2.5H43V16H38.5V11.5H34V16H29.5ZM43.75 16V2.5H48.25V11.5H52.75V2.5H57.25V16H43.75ZM66.25 11.5L64 9.25L66.25 7H62.5V11.5H66.25ZM58 16V2.5H71.5V7L69.25 9.25L71.5 11.5V16H58Z" fill="black"/>
</g>
<defs>
<clipPath id="clip0_59_8">
<rect width="72" height="18" fill="white"/>
</clipPath>
</defs>
</svg>
