<svg width="12" height="12" viewBox="0 0 12 12" fill="none" xmlns="http://www.w3.org/2000/svg">
<g clip-path="url(#clip0_56_169)">
<path fill-rule="evenodd" clip-rule="evenodd" d="M6 1C8.7615 1 11 3.2385 11 6C11 8.7615 8.7615 11 6 11C3.2385 11 1 8.7615 1 6C1 3.2385 3.2385 1 6 1ZM6.741 8.47C6.24782 8.51026 5.75218 8.51026 5.259 8.47C5.3055 8.6685 5.3575 8.8525 5.414 9.021C5.5395 9.3985 5.679 9.6675 5.809 9.832C5.8725 9.913 5.924 9.956 5.959 9.977L5.9845 9.991L5.9995 9.995L6.0155 9.991L6.041 9.9775C6.09902 9.93822 6.14977 9.88916 6.191 9.8325C6.321 9.6675 6.4605 9.3985 6.586 9.021C6.6425 8.8525 6.6945 8.6685 6.741 8.47ZM2.4035 7.7525C2.85756 8.68207 3.65306 9.40037 4.624 9.7575C4.56505 9.61983 4.512 9.4797 4.465 9.3375C4.35593 9.00479 4.26907 8.66521 4.205 8.321C3.5861 8.19569 2.98222 8.00513 2.4035 7.7525ZM9.5965 7.7525C9.0245 8.0025 8.4215 8.194 7.7945 8.321C7.73072 8.66544 7.64386 9.00521 7.5345 9.338C7.4865 9.483 7.4335 9.624 7.3755 9.757C8.34679 9.40004 9.14266 8.68173 9.597 7.752L9.5965 7.7525ZM6.988 5.4355C6.33217 5.52196 5.66783 5.52196 5.012 5.4355C4.98347 6.10715 5.00704 6.78 5.0825 7.448C5.69219 7.51753 6.30781 7.51753 6.9175 7.448C6.97296 6.96733 7.0005 6.48386 7 6C7 5.808 6.996 5.62 6.988 5.435V5.4355ZM2.284 4.516C2.03954 5.12736 1.95022 5.78972 2.024 6.444C2.66077 6.80946 3.34511 7.08492 4.0575 7.2625C3.99603 6.58879 3.98366 5.9115 4.0205 5.236C3.41361 5.07021 2.83015 4.82829 2.284 4.516ZM9.716 4.516C9.16985 4.82828 8.58638 5.0702 7.9795 5.236C8.01636 5.9115 8.00399 6.58879 7.9425 7.2625C8.65472 7.08488 9.33889 6.80943 9.9755 6.444C10.0492 5.78989 9.95987 5.12771 9.7155 4.5165L9.716 4.516ZM6.008 2.006L6.0025 2.005L5.9925 2.0065L5.9735 2.014C5.90954 2.05459 5.8536 2.10663 5.8085 2.1675C5.6785 2.3325 5.5395 2.6015 5.4135 2.9785C5.2785 3.3825 5.1695 3.8785 5.097 4.438C5.69612 4.52124 6.30388 4.52124 6.903 4.438C6.8305 3.878 6.721 3.3825 6.5865 2.9785C6.4605 2.6015 6.3215 2.332 6.1915 2.1675C6.1501 2.111 6.09937 2.06196 6.0415 2.0225L6.008 2.006ZM4.624 2.243C3.88125 2.51598 3.23584 3.00255 2.769 3.6415C3.1905 3.8835 3.642 4.0795 4.1165 4.223C4.1965 3.641 4.315 3.1115 4.465 2.662C4.5135 2.5165 4.5665 2.376 4.624 2.243ZM7.376 2.243C7.4335 2.376 7.486 2.5165 7.535 2.662C7.685 3.112 7.8035 3.641 7.8835 4.223C8.35329 4.08096 8.80537 3.88586 9.231 3.6415C8.76418 3.00253 8.11876 2.51595 7.376 2.243Z" fill="white"/>
</g>
<defs>
<clipPath id="clip0_56_169">
<rect width="12" height="12" fill="white"/>
</clipPath>
</defs>
</svg>
